<?xml version="1.0" standalone="no"?><!DOCTYPE svg PUBLIC "-//W3C//DTD SVG 1.1//EN" "http://www.w3.org/Graphics/SVG/1.1/DTD/svg11.dtd"><svg class="icon" width="200px" height="200.00px" viewBox="0 0 1024 1024" version="1.1" xmlns="http://www.w3.org/2000/svg"><path d="M642.773333 197.589333c0 130.624 104.085333 236.501333 232.490667 236.501334 26.218667 0 51.413333-4.416 74.944-12.544C913.813333 512.149333 826.304 576 724.138667 576c-134.826667 0-244.117333-111.189333-244.117334-248.32 0-118.442667 81.493333-217.514667 190.570667-242.346667a238.4 238.4 0 0 0-27.818667 112.256z" fill="#FFE34F" /><path d="M670.592 85.333333a238.4 238.4 0 0 0-27.818667 112.256c0 130.624 104.085333 236.501333 232.490667 236.501334 26.218667 0 51.413333-4.416 74.944-12.544C913.813333 512.149333 826.304 576 724.138667 576c-134.826667 0-244.117333-111.189333-244.117334-248.32 0-118.442667 81.493333-217.514667 190.570667-242.346667z m-30.549333 27.434667c-84.693333 34.389333-142.954667 118.592-142.954667 214.912 0 127.786667 101.717333 231.253333 227.050667 231.253333 80.32 0 152.874667-42.88 193.493333-110.144l0.832-1.450666-6.698667 1.130666c-9.002667 1.344-18.112 2.176-27.306666 2.517334l-9.194667 0.170666c-137.898667 0-249.557333-113.578667-249.557333-253.568 0-28.373333 4.586667-56.085333 13.44-82.261333l0.896-2.56z" fill="#000000" /><path d="M288 960c-129.578667 0-234.666667-105.066667-234.666667-234.666667 0-69.12 29.909333-131.264 77.461334-174.208C168.618667 429.589333 282.026667 341.333333 416.021333 341.333333c128.746667 0 238.485333 81.472 280.426667 195.669334 12.8-2.410667 26.026667-3.669333 39.573333-3.669334 117.824 0 213.333333 95.509333 213.333334 213.333334 0 115.84-92.309333 210.090667-207.36 213.248L736 960h-448z" fill="#FFFFFF" /><path d="M949.333333 746.666667c0 115.84-92.288 210.090667-207.36 213.248L736 960h-448c-129.578667 0-234.666667-105.066667-234.666667-234.666667 0-5.76 0.213333-11.498667 0.64-17.173333 8.64 116.565333 104.405333 208.853333 222.4 211.989333l6.229334 0.085334H720.213333l5.845334-0.085334c112.384-3.072 202.56-95.146667 202.56-208.32 0-33.472-7.893333-65.109333-21.930667-93.141333A212.394667 212.394667 0 0 1 949.354667 746.666667z" fill="#D1F1FF" /><path d="M416 341.333333c128.768 0 238.506667 81.472 280.448 195.669334 12.8-2.410667 26.026667-3.669333 39.573333-3.669334 117.824 0 213.333333 95.509333 213.333334 213.333334 0 115.84-92.309333 210.090667-207.36 213.248L736 960h-448c-129.6 0-234.666667-105.066667-234.666667-234.666667 0-69.12 29.866667-131.264 77.44-174.208C168.618667 429.589333 282.026667 341.333333 416.021333 341.333333z m0 17.066667c-124.138667 0-232.576 81.066667-268.906667 197.802667a17.066667 17.066667 0 0 1-4.864 7.594666A216.96 216.96 0 0 0 70.421333 725.333333c0 118.186667 94.208 214.336 211.626667 217.514667l5.973333 0.085333H735.786667l5.738666-0.085333C847.573333 939.946667 932.266667 853.013333 932.266667 746.666667a196.266667 196.266667 0 0 0-232.682667-192.896 17.066667 17.066667 0 0 1-19.178667-10.88A281.685333 281.685333 0 0 0 416.021333 358.4z" fill="#000000" /><path d="M330.048 598.293333L331.370667 596.309333a10.666667 10.666667 0 1 1 18.410666 10.794667c-9.152 15.616-29.290667 26.026667-54.101333 26.026667-23.488 0-41.706667-10.026667-53.312-24.832a10.666667 10.666667 0 1 1 16.789333-13.162667c7.786667 9.92 20.032 16.682667 36.522667 16.682667 16.213333 0 28.544-5.76 34.368-13.525334zM614.634667 596.309333a10.666667 10.666667 0 0 1 18.410666 10.794667c-9.152 15.616-29.290667 26.026667-54.101333 26.026667-23.488 0-41.706667-10.026667-53.333333-24.832a10.666667 10.666667 0 0 1 16.810666-13.162667c7.786667 9.92 20.010667 16.682667 36.522667 16.682667 16.213333 0 28.544-5.76 34.368-13.525334l1.322667-1.984z" fill="#000000" /><path d="M170.517333 690.432a74.666667 42.666667 0 1 0 149.333334 0 74.666667 42.666667 0 1 0-149.333334 0Z" fill="#FF9DCF" /><path d="M554.773333 690.432a74.666667 42.666667 0 1 0 149.333334 0 74.666667 42.666667 0 1 0-149.333334 0Z" fill="#FF9DCF" /><path d="M373.312 779.413333a64 49.984 0 1 0 128 0 64 49.984 0 1 0-128 0Z" fill="#FA3E3E" /><path d="M437.312 729.429333c35.349333 0 64 22.4 64 49.984 0 27.605333-28.650667 49.984-64 49.984s-64-22.378667-64-49.984S401.962667 729.429333 437.312 729.429333z m0 21.333334c-24.554667 0-42.666667 14.144-42.666667 28.650666 0 14.506667 18.112 28.650667 42.666667 28.650667 24.533333 0 42.666667-14.144 42.666667-28.650667 0-14.506667-18.133333-28.650667-42.666667-28.650666z" fill="#000000" /><path d="M141.333333 75.093333c1.066667 0 1.984-0.384 2.730667-1.130666a3.584 3.584 0 0 0 1.109333-2.602667 3.712 3.712 0 0 0-1.109333-2.730667 3.712 3.712 0 0 0-2.730667-1.109333H110.506667V63.36a3.754667 3.754667 0 0 0-1.109334-2.666667 3.626667 3.626667 0 0 0-5.333333 0 3.754667 3.754667 0 0 0-1.130667 2.666667v4.16h-30.293333a3.712 3.712 0 0 0-2.709333 1.109333 3.712 3.712 0 0 0-1.130667 2.730667c0 1.002667 0.384 1.856 1.109333 2.602667a3.712 3.712 0 0 0 2.730667 1.130666h68.693333z m1.685334 83.072l0.981333-0.042666a4.437333 4.437333 0 0 0 2.56-1.429334 3.989333 3.989333 0 0 0 0.576-2.88 3.84 3.84 0 0 0-1.536-2.453333 135.189333 135.189333 0 0 1-21.973333-22.506667 120.704 120.704 0 0 0 16-36.586666 3.584 3.584 0 0 0-0.896-3.797334 3.712 3.712 0 0 0-2.730667-1.109333h-28.586667l1.813334-5.12a4.117333 4.117333 0 0 0-0.213334-2.944 3.605333 3.605333 0 0 0-2.133333-1.856 3.797333 3.797333 0 0 0-2.944 0.106667 3.626667 3.626667 0 0 0-1.856 2.24l-3.52 10.133333a3.968 3.968 0 0 0 0.213333 2.88c0.426667 0.853333 1.130667 1.493333 2.133334 1.92 0.490667 0.149333 0.896 0.213333 1.173333 0.213333H130.986667c-2.709333 9.450667-6.826667 18.602667-12.373334 27.413334a147.370667 147.370667 0 0 1-12.053333-20.8 3.541333 3.541333 0 0 0-2.090667-2.026667 3.562667 3.562667 0 0 0-2.816 0.106667 3.541333 3.541333 0 0 0-2.026666 2.090666 3.84 3.84 0 0 0 0.106666 2.922667c3.626667 8.170667 8.469333 16.32 14.506667 24.426667-6.4 8.96-13.610667 16.362667-21.653333 22.186666a4.053333 4.053333 0 0 0-1.6 2.389334 3.690667 3.690667 0 0 0 0.533333 2.837333c0.576 0.917333 1.344 1.493333 2.346667 1.642667 1.002667 0.192 1.962667 0 2.88-0.576 8.32-5.973333 15.744-13.376 22.293333-22.186667 7.189333 8.682667 14.549333 16.042667 22.08 22.08 0.917333 0.64 1.877333 0.853333 2.88 0.682667l-0.981333 0.042666z m-59.178667 0.021334a3.669333 3.669333 0 0 0 2.624-1.066667 3.52 3.52 0 0 0 1.109333-2.666667V97.6c2.133333-4.544 3.946667-9.749333 5.44-15.573333a3.989333 3.989333 0 0 0-0.426666-2.88 3.328 3.328 0 0 0-2.346667-1.6 3.797333 3.797333 0 0 0-2.88 0.277333 3.157333 3.157333 0 0 0-1.6 2.282667 84.138667 84.138667 0 0 1-5.653333 15.36 9.557333 9.557333 0 0 1-0.853334 1.706666l-0.426666 0.853334c-2.837333 4.906667-6.357333 9.536-10.56 13.866666a3.797333 3.797333 0 0 0-1.066667 2.602667c0 0.96 0.362667 1.877333 1.066667 2.730667 0.789333 0.704 1.664 1.066667 2.666666 1.024a4.501333 4.501333 0 0 0 2.773334-1.130667c2.197333-2.282667 4.266667-4.629333 6.186666-7.04v44.373333c0 1.066667 0.384 1.962667 1.173334 2.666667 0.789333 0.704 1.706667 1.066667 2.773333 1.066667z m33.92-45.866667c1.066667 0 1.984-0.384 2.730667-1.109333A3.584 3.584 0 0 0 121.6 108.586667v-6.933334a3.584 3.584 0 0 0-1.130667-2.602666 3.712 3.712 0 0 0-2.709333-1.130667 3.584 3.584 0 0 0-2.602667 1.130667 3.584 3.584 0 0 0-1.130666 2.602666v6.933334c0 1.002667 0.384 1.877333 1.130666 2.624a3.584 3.584 0 0 0 2.602667 1.109333z m74.624 46.165333l0.938667-0.085333a3.541333 3.541333 0 0 0 2.304-1.706667c5.269333-8.32 9.856-19.157333 13.76-32.533333 1.216-4.117333 2.24-8.32 3.093333-12.586667h17.706667a3.626667 3.626667 0 0 0 2.730666-1.173333 3.754667 3.754667 0 0 0 1.109334-2.666667v-19.52a3.712 3.712 0 0 0-1.130667-2.709333 3.712 3.712 0 0 0-2.709333-1.130667h-6.4l3.413333-10.666666a3.904 3.904 0 0 0-0.64-3.306667 3.456 3.456 0 0 0-2.986667-1.493333H199.466667l2.026666-4.8a3.669333 3.669333 0 0 0-0.106666-2.88 3.968 3.968 0 0 0-2.133334-2.026667 4.330667 4.330667 0 0 0-2.922666 0.170667 3.413333 3.413333 0 0 0-1.877334 2.069333l-3.84 9.6a4.330667 4.330667 0 0 0 0.384 3.669333c0.661333 1.194667 1.685333 1.770667 3.029334 1.770667h24.426666l-2.56 7.893333H193.706667a3.712 3.712 0 0 0-2.709334 1.130667 3.712 3.712 0 0 0-1.130666 2.709333v19.52c0 1.002667 0.384 1.877333 1.130666 2.666667a3.626667 3.626667 0 0 0 2.709334 1.173333h10.986666a145.706667 145.706667 0 0 1-1.92 8l-0.64 2.56c-3.690667 12.650667-8 22.869333-12.906666 30.613334a3.968 3.968 0 0 0-0.426667 2.837333c0.213333 0.96 0.789333 1.749333 1.706667 2.389333 0.917333 0.490667 1.877333 0.64 2.837333 0.426667l-0.96 0.085333z m-11.370667-11.392a3.584 3.584 0 0 0 2.624-1.109333 3.712 3.712 0 0 0 1.109334-2.730667V72.746667a3.584 3.584 0 0 0-1.130667-2.624 3.584 3.584 0 0 0-2.602667-1.109334H164.266667a3.712 3.712 0 0 0-2.730667 1.130667 3.584 3.584 0 0 0-1.109333 2.602667v70.506666c0 1.066667 0.384 1.984 1.130666 2.730667a3.712 3.712 0 0 0 2.709334 1.109333h16.746666z m-3.84-47.893333h-9.173333V76.586667h9.173333v22.613333z m49.28 4.693333h-12.693333c0.64-3.989333 1.066667-7.957333 1.28-11.946666h11.413333v11.946666z m-20.373333 0h-8.64v-11.946666h9.92v0.32c-0.277333 3.84-0.704 7.722667-1.28 11.626666zM177.173333 139.52h-9.173333V106.773333h9.173333V139.52z m49.664 18.496a11.413333 11.413333 0 0 0 7.936-2.773333c2.346667-1.941333 3.733333-4.992 4.16-9.109334l0.426667-5.76a4.096 4.096 0 0 0-1.024-2.773333 3.626667 3.626667 0 0 0-2.602667-1.28 3.605333 3.605333 0 0 0-2.773333 0.96 3.818667 3.818667 0 0 0-1.28 2.666667l-0.32 5.76c-0.213333 1.856-0.981333 3.136-2.282667 3.84a4.096 4.096 0 0 1-3.904 0.170666c-1.28-0.618667-1.92-1.877333-1.92-3.797333V120.213333a3.584 3.584 0 0 0-1.130666-2.602666 3.712 3.712 0 0 0-2.709334-1.130667 3.52 3.52 0 0 0-2.666666 1.130667 3.669333 3.669333 0 0 0-1.066667 2.602666V145.92c0 3.84 1.130667 6.784 3.370667 8.853333a11.818667 11.818667 0 0 0 7.765333 3.242667z m34.112-50.517333l1.024-0.085334a109.098667 109.098667 0 0 0 30.933334-11.626666 117.845333 117.845333 0 0 0 25.92-21.226667 3.712 3.712 0 0 0 1.002666-2.709333 3.754667 3.754667 0 0 0-1.109333-2.624 3.669333 3.669333 0 0 0-2.666667-1.173334H275.626667l2.24-2.666666a3.818667 3.818667 0 0 0 0.789333-2.773334 3.946667 3.946667 0 0 0-1.322667-2.56 3.733333 3.733333 0 0 0-5.226666 0.533334l-7.466667 8.746666a3.690667 3.690667 0 0 0-0.96 2.56c0 1.066667 0.384 1.962667 1.130667 2.666667 0.725333 0.704 1.642667 1.066667 2.709333 1.066667h39.253333a100.48 100.48 0 0 1-21.44 15.466666 105.450667 105.450667 0 0 1-25.066666 8.853334 3.84 3.84 0 1 0 1.706666 7.466666l-1.024 0.085334z m21.397334-18.432a3.584 3.584 0 0 0 2.624-1.130667A3.584 3.584 0 0 0 286.08 85.333333a3.712 3.712 0 0 0-1.130667-2.709333 3.584 3.584 0 0 0-2.602666-1.130667h-14.933334a3.584 3.584 0 0 0-2.624 1.130667 3.712 3.712 0 0 0-1.109333 2.709333c0 1.002667 0.384 1.877333 1.130667 2.602667a3.584 3.584 0 0 0 2.602666 1.130667h14.933334z m-23.018667 69.333333l1.045333-0.106667a110.229333 110.229333 0 0 0 59.093334-38.4 3.498667 3.498667 0 0 0 0.853333-2.837333 4.202667 4.202667 0 0 0-1.386667-2.602667 4.352 4.352 0 0 0-2.346666-0.746666h-42.026667l1.28-1.493334a3.712 3.712 0 0 0-0.32-5.333333 3.712 3.712 0 0 0-2.709333-1.002667 3.584 3.584 0 0 0-2.624 1.216l-6.826667 7.573334c-0.789333 0.64-1.173333 1.557333-1.173333 2.773333 0 1.066667 0.384 1.984 1.130666 2.730667a3.712 3.712 0 0 0 2.709334 1.109333h42.133333a102.058667 102.058667 0 0 1-49.706667 29.653333 3.626667 3.626667 0 0 0-2.346666 1.749334 4.16 4.16 0 0 0-0.426667 2.944c0.277333 1.002667 0.853333 1.749333 1.770667 2.24 0.874667 0.490667 1.856 0.64 2.922666 0.426666l-1.045333 0.085334zM282.24 135.68c1.066667 0 1.962667-0.384 2.666667-1.130667a3.669333 3.669333 0 0 0 1.066666-2.602666 3.797333 3.797333 0 0 0-1.066666-2.709334 3.52 3.52 0 0 0-2.666667-1.130666h-16.853333a3.584 3.584 0 0 0-2.602667 1.130666 3.712 3.712 0 0 0-1.130667 2.709334c0 1.002667 0.384 1.877333 1.130667 2.624a3.584 3.584 0 0 0 2.602667 1.109333h16.853333z m122.346667-62.72c1.066667 0 1.984-0.384 2.773333-1.173333a3.669333 3.669333 0 0 0 1.173333-2.666667 3.669333 3.669333 0 0 0-1.173333-2.666667 3.797333 3.797333 0 0 0-2.773333-1.173333h-46.72a3.797333 3.797333 0 0 0-2.773334 1.173333 3.669333 3.669333 0 0 0-1.173333 2.666667c0 1.002667 0.384 1.877333 1.173333 2.666667 0.789333 0.789333 1.706667 1.173333 2.773334 1.173333h46.72z m1.173333 83.093333c0.576 0 1.066667-0.106667 1.493333-0.32a4.266667 4.266667 0 0 0 1.984-2.133333 3.541333 3.541333 0 0 0-0.064-2.88l-13.226666-30.506667a3.541333 3.541333 0 0 0-2.090667-2.026666 4.16 4.16 0 0 0-2.922667 0 3.925333 3.925333 0 0 0-2.026666 2.197333 4.16 4.16 0 0 0 0 2.922667l11.093333 25.066666h-37.546667l18.133334-46.08h34.773333a3.584 3.584 0 0 0 2.624-1.130666 3.584 3.584 0 0 0 1.109333-2.602667 3.712 3.712 0 0 0-1.109333-2.730667 3.584 3.584 0 0 0-2.624-1.109333h-68.053333a3.584 3.584 0 0 0-2.624 1.109333 3.712 3.712 0 0 0-1.109334 2.730667c0 1.002667 0.362667 1.856 1.109334 2.602667a3.584 3.584 0 0 0 2.624 1.130666h25.066666l-18.88 48.426667a3.754667 3.754667 0 0 0 0.810667 4.16 3.498667 3.498667 0 0 0 2.602667 1.173333h48.853333z" fill="#000000" /></svg>