<?xml version="1.0" standalone="no"?><!DOCTYPE svg PUBLIC "-//W3C//DTD SVG 1.1//EN" "http://www.w3.org/Graphics/SVG/1.1/DTD/svg11.dtd"><svg t="1712824671213" class="icon" viewBox="0 0 1024 1024" version="1.1" xmlns="http://www.w3.org/2000/svg" p-id="22796" xmlns:xlink="http://www.w3.org/1999/xlink" width="200" height="200"><path d="M358.00557 79.303111l-98.607407 14.52563C167.791881 107.33037 94.814815 191.055644 94.814815 283.04877v60.681482c0 96.802133 80.463644 165.410133 176.749985 151.218252l98.607407-14.52563C461.778489 466.921244 534.755556 383.203556 534.755556 291.202844v-60.681481C534.755556 133.726815 454.291911 65.11123 358.00557 79.303111zM451.318519 230.513778v60.681481c0 50.441481-42.484622 99.183881-93.312949 106.678045l-98.607407 14.525629c-46.148267 6.796326-81.146311-23.043793-81.146311-68.676266v-60.681482c0-50.441481 42.484622-99.183881 93.312948-106.678044l98.607407-14.52563C416.320474 155.04877 451.318519 184.888889 451.318519 230.521363z" p-id="22797"></path><path d="M658.409244 79.303111l98.607408 14.52563C848.622933 107.33037 921.6 191.055644 921.6 283.04877v60.681482c0 96.802133-80.463644 165.410133-176.749985 151.218252l-98.607408-14.52563C554.636326 466.921244 481.659259 383.203556 481.659259 291.202844v-60.681481C481.659259 133.726815 562.122904 65.11123 658.409244 79.303111zM565.096296 230.513778v60.681481c0 50.441481 42.484622 99.183881 93.312948 106.678045l98.607408 14.525629c46.148267 6.796326 81.146311-23.043793 81.146311-68.676266v-60.681482c0-50.441481-42.484622-99.183881-93.312948-106.678044l-98.607408-14.52563C600.094341 155.04877 565.096296 184.888889 565.096296 230.521363z" p-id="22798"></path><path d="M907.446044 410.358519l10.315852 44.729837c69.540978 33.875437 104.296296 86.85037 104.296297 158.932385 0 108.11923-63.275615 228.738844-377.362963 317.06074a519.122489 519.122489 0 0 1-123.25926 19.281541v0.288237c-3.46643 0.022756-6.940444 0.007585-10.406874-0.037926-3.458844 0.045511-6.932859 0.060681-10.406874 0.037926v-0.288237a519.122489 519.122489 0 0 1-123.259259-19.281541C63.2832 842.759585 0 722.13997 0 614.020741c0-70.936652 33.670637-123.373037 101.011911-157.301571l3.284385-1.630814 8.518163-36.939852a146.454756 146.454756 0 0 0 68.645926 64.74714l0.007585 269.70643 3.375408 2.070756c49.918104 30.371081 117.585541 59.065837 208.592592 84.741689A467.072948 467.072948 0 0 0 500.622222 856.708741l-0.007585 0.4096c3.792593 0.022756 7.59277 0 11.377778-0.068267 3.792593 0.075852 7.585185 0.091022 11.377778 0.075852v-0.417185a467.072948 467.072948 0 0 0 107.186251-17.294222c89.216948-25.17523 155.989333-53.248 205.6192-82.944V482.31917a146.538193 146.538193 0 0 0 71.262815-71.960651z" p-id="22799"></path><path d="M371.674074 576.474074m45.511111 0l0 0q45.511111 0 45.511111 45.511111l0 98.607408q0 45.511111-45.511111 45.511111l0 0q-45.511111 0-45.511111-45.511111l0-98.607408q0-45.511111 45.511111-45.511111Z" p-id="22800"></path><path d="M553.718519 576.474074m45.511111 0l0 0q45.511111 0 45.511111 45.511111l0 98.607408q0 45.511111-45.511111 45.511111l0 0q-45.511111 0-45.511111-45.511111l0-98.607408q0-45.511111 45.511111-45.511111Z" p-id="22801"></path></svg>